# xmcd
#
# Track frame offsets: 
#        150
#        26384
#        45181
#        57435
#        75086
#        93862
#        117534
#        133647
#        150512
#        167493
#        189661
#
# Disc length: 2659 seconds
#
# Revision: 0
# Processed by: cddbd v1.5.1PL2 Copyright (c) Steve Scherf et al.
# Submitted via: ExactAudioCopy v0.95b4
#
DISCID=770a610b
DTITLE=Alison Krauss - Live With Union Station
DYEAR=2003
DGENRE=Country
TTITLE0=01 - Monkey Let The Hogs Out
TTITLE1=02 - The Boy Who Wouldn't Hoe Corn
TTITLE2=03 - Take Me For Longing
TTITLE3=04 - I Am A Man Of Constant Sorrow
TTITLE4=05 - Maybe
TTITLE5=06 - We Hide and Seek
TTITLE6=07 - But You Know I Love You
TTITLE7=08 - When You Say Nothing At All
TTITLE8=09 - New Favorite
TTITLE9=10 - Oh, Atlanta
TTITLE10=11 - Down In The River To Pray
EXTD=
EXTT0=
EXTT1=
EXTT2=
EXTT3=
EXTT4=
EXTT5=
EXTT6=
EXTT7=
EXTT8=
EXTT9=
EXTT10=
PLAYORDER=
